<svg width="30" height="31" viewBox="0 0 30 31" fill="none" xmlns="http://www.w3.org/2000/svg">
<path fill-rule="evenodd" clip-rule="evenodd" d="M14.3799 3.62866C8.1689 3.62866 3.12988 8.66323 3.12988 14.8787C3.12988 21.0941 8.1689 26.1287 14.3799 26.1287C20.5909 26.1287 25.6299 21.0941 25.6299 14.8787C25.6299 8.66323 20.5909 3.62866 14.3799 3.62866ZM5.10193 14.8787C5.10193 9.7592 9.25359 5.60501 14.3799 5.60501C19.5062 5.60501 23.6578 9.7592 23.6578 14.8787C23.6578 19.9981 19.5062 24.1523 14.3799 24.1523C9.25359 24.1523 5.10193 19.9981 5.10193 14.8787ZM14.3799 9.10163C13.4711 9.10163 12.7562 9.88706 12.8473 10.7976L13.3273 15.5967C13.3817 16.1403 13.8384 16.551 14.3799 16.551C14.9214 16.551 15.3781 16.1403 15.4325 15.5967L15.9125 10.7976C16.0036 9.88706 15.2887 9.10163 14.3799 9.10163ZM14.382 17.3111C13.4617 17.3111 12.7117 18.0576 12.7117 18.9834C12.7117 19.9092 13.4617 20.6557 14.382 20.6557C15.3022 20.6557 16.0523 19.9092 16.0523 18.9834C16.0523 18.0576 15.3022 17.3111 14.382 17.3111Z" fill="#FF5D29"/>
<path d="M12.8473 10.7976L12.698 10.8126L12.8473 10.7976ZM13.3273 15.5967L13.4766 15.5817H13.4765L13.3273 15.5967ZM15.4325 15.5967L15.5817 15.6116L15.4325 15.5967ZM15.9125 10.7976L16.0617 10.8126L16.0617 10.8126L15.9125 10.7976ZM3.27988 14.8787C3.27988 8.74611 8.25171 3.77866 14.3799 3.77866V3.47866C8.0861 3.47866 2.97988 8.58035 2.97988 14.8787H3.27988ZM14.3799 25.9787C8.25171 25.9787 3.27988 21.0112 3.27988 14.8787H2.97988C2.97988 21.177 8.0861 26.2787 14.3799 26.2787V25.9787ZM25.4799 14.8787C25.4799 21.0112 20.5081 25.9787 14.3799 25.9787V26.2787C20.6737 26.2787 25.7799 21.177 25.7799 14.8787H25.4799ZM14.3799 3.77866C20.5081 3.77866 25.4799 8.74611 25.4799 14.8787H25.7799C25.7799 8.58035 20.6737 3.47866 14.3799 3.47866V3.77866ZM14.3799 5.45501C9.17077 5.45501 4.95193 9.67634 4.95193 14.8787H5.25193C5.25193 9.84206 9.33641 5.75501 14.3799 5.75501V5.45501ZM23.8078 14.8787C23.8078 9.67634 19.589 5.45501 14.3799 5.45501V5.75501C19.4234 5.75501 23.5078 9.84206 23.5078 14.8787H23.8078ZM14.3799 24.3023C19.589 24.3023 23.8078 20.081 23.8078 14.8787H23.5078C23.5078 19.9153 19.4234 24.0023 14.3799 24.0023V24.3023ZM4.95193 14.8787C4.95193 20.081 9.17077 24.3023 14.3799 24.3023V24.0023C9.33641 24.0023 5.25193 19.9153 5.25193 14.8787H4.95193ZM12.9965 10.7827C12.9143 9.96056 13.5597 9.25164 14.3799 9.25164V8.95163C13.3825 8.95163 12.5981 9.81357 12.698 10.8126L12.9965 10.7827ZM13.4765 15.5817L12.9965 10.7827L12.698 10.8126L13.178 15.6116L13.4765 15.5817ZM14.3799 16.401C13.9154 16.401 13.5232 16.0486 13.4766 15.5817L13.178 15.6116C13.2401 16.232 13.7614 16.701 14.3799 16.701V16.401ZM15.2832 15.5817C15.2365 16.0486 14.8444 16.401 14.3799 16.401V16.701C14.9983 16.701 15.5197 16.232 15.5817 15.6116L15.2832 15.5817ZM15.7632 10.7827L15.2832 15.5817L15.5817 15.6116L16.0617 10.8126L15.7632 10.7827ZM14.3799 9.25164C15.2 9.25164 15.8455 9.96056 15.7632 10.7827L16.0617 10.8126C16.1617 9.81356 15.3773 8.95163 14.3799 8.95163V9.25164ZM12.8617 18.9834C12.8617 18.1405 13.5445 17.4611 14.382 17.4611V17.1611C13.379 17.1611 12.5617 17.9746 12.5617 18.9834H12.8617ZM14.382 20.5057C13.5445 20.5057 12.8617 19.8263 12.8617 18.9834H12.5617C12.5617 19.9921 13.379 20.8057 14.382 20.8057V20.5057ZM15.9023 18.9834C15.9023 19.8263 15.2195 20.5057 14.382 20.5057V20.8057C15.385 20.8057 16.2023 19.9921 16.2023 18.9834H15.9023ZM14.382 17.4611C15.2195 17.4611 15.9023 18.1405 15.9023 18.9834H16.2023C16.2023 17.9746 15.385 17.1611 14.382 17.1611V17.4611Z" fill="#FF5D29"/>
</svg>
