<svg width="992" height="990" viewBox="0 0 992 990" fill="none" xmlns="http://www.w3.org/2000/svg">
<path d="M0.642456 990H0.000366211H0.642456ZM1.76599 990L526.338 976.522C526.499 981.015 526.499 985.507 526.499 990H1.60553H1.76599ZM0.802979 990H0.642456H0.000366211H0.802979ZM1.44507 990H1.60553H1.76599H1.92657H2.0871L522.004 922.288C523.128 931.274 524.091 940.42 524.893 949.566L1.92657 990H1.76599H1.44507H0.96344H1.44507ZM512.052 867.895C514.139 876.88 516.065 885.865 517.831 894.851L2.0871 989.84L512.052 867.895ZM1.44507 990H1.76599H1.92657H1.44507ZM496.321 814.784C499.371 823.449 502.26 832.274 504.829 841.099L1.92657 989.84L496.321 814.784ZM475.293 763.76C479.306 772.104 482.998 780.447 486.53 788.951L2.0871 989.679L475.293 763.76ZM1.60553 990H1.76599H1.60553ZM448.969 715.464C453.784 723.326 458.279 731.188 462.773 739.211L2.24768 989.84L448.969 715.464ZM1.60553 990L1.76599 989.84L1.60553 990ZM1.76599 990L417.828 670.376C423.446 677.596 428.743 684.977 433.88 692.519L1.92657 989.84L1.76599 990ZM1.60553 990L382.354 628.818C388.614 635.397 394.714 642.136 400.653 649.196L1.60553 990ZM1.60553 989.84L342.706 591.112C349.608 597.049 356.35 603.146 363.091 609.404L1.60553 989.84ZM1.60553 989.84V989.679L299.205 557.898C306.75 563.032 314.134 568.488 321.357 573.943L1.60553 989.84ZM1.76599 989.519L252.495 529.016C260.521 533.348 268.547 538.002 276.251 542.815L1.76599 989.519ZM202.574 505.269C211.081 508.799 219.428 512.489 227.775 516.501L1.60553 989.519L202.574 505.269ZM150.566 486.817C159.394 489.384 168.223 492.272 176.891 495.321L1.76599 989.358L150.566 486.817ZM1.60553 990V989.84V990ZM96.7925 473.981C105.942 475.585 114.931 477.511 123.76 479.757L1.76599 989.519L96.7925 473.981ZM1.60553 990V989.84V990ZM1.60553 990V989.84V989.679L42.3771 466.921C51.5266 467.562 60.5156 468.525 69.6651 469.809L1.92657 989.519V989.679V989.84L1.60553 990ZM1.60553 990V465.316C6.10004 465.316 10.5946 465.316 15.0891 465.477L1.60553 989.84V990ZM1.60553 465.316V990H1.44507H0.96344H0.802979H0.642456H0.000366211V465.316H1.60553ZM1.76599 990L526.338 976.522L991.679 964.488C991.839 972.992 992 981.496 992 990H1.60553H1.76599ZM0.802979 990H0.642456H0.000366211H0.802979ZM1.44507 990H1.60553H1.76599H1.92657H2.0871L522.165 922.128L983.653 861.958C985.9 878.966 987.666 896.135 988.95 913.303L524.893 949.245L1.92657 990H1.76599H1.44507H0.96344H1.44507ZM2.0871 989.84L512.052 867.895L964.712 759.588C968.725 776.436 972.417 793.444 975.467 810.613L517.67 894.851L2.0871 989.84ZM1.44507 990H1.60553H1.44507ZM496.321 814.784L935.177 659.465C940.955 675.831 946.413 692.358 951.228 709.045L504.829 841.099L1.92657 989.84L496.321 814.784ZM1.60553 990H1.76599H1.60553ZM475.293 763.76L895.208 563.193C902.752 578.757 909.815 594.642 916.396 610.848L486.369 789.112L1.92657 989.84L475.293 763.76ZM448.969 715.464L845.608 472.055C854.597 486.817 863.265 501.739 871.612 516.982L2.0871 989.84L448.969 715.464ZM1.60553 990L1.76599 989.84L1.60553 990ZM1.76599 990L417.828 670.376L787.019 386.854C797.452 400.493 807.565 414.452 817.517 428.572L434.04 692.519L2.0871 989.84L1.76599 990ZM1.76599 990L382.354 628.818L719.922 308.392C731.801 320.908 743.198 333.583 754.434 346.741L400.653 649.036L1.76599 990ZM1.60553 989.84L342.706 591.112L645.121 237.472C658.284 248.703 670.965 260.096 683.485 271.969L362.931 609.404L1.60553 989.84ZM1.60553 989.84V989.679L299.205 557.898L563.257 174.574C577.543 184.361 591.348 194.47 604.992 205.06L321.357 574.104L1.60553 989.84ZM1.76599 989.519L474.812 120.34C490.061 128.684 504.989 137.348 519.757 146.334L276.091 542.815L1.76599 989.519ZM202.574 505.269L380.909 75.4133C396.961 82.1524 412.852 89.2123 428.583 96.5932L227.936 516.501L1.76599 989.519L202.574 505.269ZM150.566 486.817L282.512 40.5948C299.205 45.5689 315.899 50.8639 332.112 56.6402L176.73 495.321L1.60553 989.358L150.566 486.817ZM1.60553 990V989.84V990ZM1.76599 989.519L96.7925 473.981L181.064 16.3663C198.24 19.5754 215.255 23.1053 232.109 27.1167L123.76 479.596L1.76599 989.519ZM1.60553 990V989.84V990ZM1.60553 990V989.84V989.679L42.3771 466.921L78.333 2.88817C95.5084 4.1718 112.684 6.09724 129.699 8.18314L69.5045 469.648L1.60553 989.519V989.679V989.84V990ZM1.60553 990V0C10.113 0 18.6205 0.160454 27.1279 0.320908L15.0891 465.477L1.60553 989.84V990ZM1.60553 0V990H1.44507H0.96344H0.802979H0.642456H0.000366211V0H1.60553Z" fill="url(#paint0_radial_1_448)"/>
<defs>
<radialGradient id="paint0_radial_1_448" cx="0" cy="0" r="1" gradientUnits="userSpaceOnUse" gradientTransform="translate(-33.1926 1048.81) rotate(-46.0678) scale(1058.92 1061.02)">
<stop stop-color="#6366F1" stop-opacity="0.05"/>
<stop offset="1" stop-color="white" stop-opacity="0"/>
</radialGradient>
</defs>
</svg>
