<svg width="45" height="40" viewBox="0 0 45 40" fill="none" xmlns="http://www.w3.org/2000/svg">
<path fill-rule="evenodd" clip-rule="evenodd" d="M17.791 2.26001L33.1543 11.13V28.87L17.791 37.74L2.42773 28.87V11.13L17.791 2.26001ZM4.63768 12.4059V27.5941L17.791 35.1882L30.9444 27.5941V12.4059L17.791 4.81183L4.63768 12.4059Z" fill="#272B36"/>
<path fill-rule="evenodd" clip-rule="evenodd" d="M17.6792 2.43091C18.2895 2.43091 18.7842 2.92562 18.7842 3.53588V14.2541C18.7842 14.8644 18.2895 15.3591 17.6792 15.3591C17.0689 15.3591 16.5742 14.8644 16.5742 14.2541V3.53588C16.5742 2.92562 17.0689 2.43091 17.6792 2.43091Z" fill="#7335FD"/>
<path fill-rule="evenodd" clip-rule="evenodd" d="M17.6792 24.5303C18.2895 24.5303 18.7842 25.025 18.7842 25.6352V36.3535C18.7842 36.9637 18.2895 37.4585 17.6792 37.4585C17.0689 37.4585 16.5742 36.9637 16.5742 36.3535V25.6352C16.5742 25.025 17.0689 24.5303 17.6792 24.5303Z" fill="#272B36"/>
<path fill-rule="evenodd" clip-rule="evenodd" d="M33.0017 11.1603C33.3068 11.6888 33.1258 12.3646 32.5973 12.6697L23.315 18.0288C22.7865 18.334 22.1107 18.1529 21.8056 17.6244C21.5004 17.0959 21.6815 16.4201 22.21 16.115L31.4923 10.7559C32.0208 10.4507 32.6966 10.6318 33.0017 11.1603Z" fill="#272B36"/>
<path fill-rule="evenodd" clip-rule="evenodd" d="M33.0764 28.7672C32.7713 29.2957 32.0955 29.4768 31.567 29.1717L22.2847 23.8126C21.7562 23.5074 21.5752 22.8316 21.8803 22.3031C22.1854 21.7746 22.8612 21.5936 23.3897 21.8987L32.672 27.2578C33.2005 27.5629 33.3815 28.2387 33.0764 28.7672Z" fill="#7335FD"/>
<path fill-rule="evenodd" clip-rule="evenodd" d="M13.7751 22.4311C14.0803 22.9596 13.8992 23.6353 13.3707 23.9405L4.08843 29.2996C3.55993 29.6047 2.88414 29.4236 2.57901 28.8951C2.27388 28.3666 2.45496 27.6909 2.98346 27.3857L12.2657 22.0266C12.7942 21.7215 13.47 21.9026 13.7751 22.4311Z" fill="#7335FD"/>
<path fill-rule="evenodd" clip-rule="evenodd" d="M13.7014 17.7521C13.3963 18.2806 12.7205 18.4617 12.192 18.1565L2.90974 12.7974C2.38124 12.4923 2.20016 11.8165 2.50529 11.288C2.81042 10.7595 3.48621 10.5784 4.01471 10.8836L13.297 16.2427C13.8255 16.5478 14.0065 17.2236 13.7014 17.7521Z" fill="#272B36"/>
<path d="M23.9328 20.0001C23.9328 23.3923 21.1828 26.1422 17.7906 26.1422C14.3984 26.1422 11.6484 23.3923 11.6484 20.0001C11.6484 16.6078 14.3984 13.8579 17.7906 13.8579C21.1828 13.8579 23.9328 16.6078 23.9328 20.0001Z" fill="#272B36"/>
<path fill-rule="evenodd" clip-rule="evenodd" d="M17.7906 14.4966C14.7512 14.4966 12.2872 16.9606 12.2872 20.0001C12.2872 23.0396 14.7512 25.5036 17.7906 25.5036C20.8301 25.5036 23.2941 23.0396 23.2941 20.0001C23.2941 16.9606 20.8301 14.4966 17.7906 14.4966ZM11.0098 20.0001C11.0098 16.2551 14.0457 13.2192 17.7906 13.2192C21.5356 13.2192 24.5715 16.2551 24.5715 20.0001C24.5715 23.7451 21.5356 26.781 17.7906 26.781C14.0457 26.781 11.0098 23.7451 11.0098 20.0001Z" fill="#FAFAFA"/>
<path d="M20.3326 36.4641C20.3326 37.8067 19.2442 38.8951 17.9016 38.8951C16.5591 38.8951 15.4707 37.8067 15.4707 36.4641C15.4707 35.1216 16.5591 34.0332 17.9016 34.0332C19.2442 34.0332 20.3326 35.1216 20.3326 36.4641Z" fill="#FAFAFA"/>
<path fill-rule="evenodd" clip-rule="evenodd" d="M17.9011 35.1382C17.1688 35.1382 16.5752 35.7318 16.5752 36.4641C16.5752 37.1964 17.1688 37.7901 17.9011 37.7901C18.6335 37.7901 19.2271 37.1964 19.2271 36.4641C19.2271 35.7318 18.6335 35.1382 17.9011 35.1382ZM14.3652 36.4641C14.3652 34.5113 15.9483 32.9282 17.9011 32.9282C19.854 32.9282 21.4371 34.5113 21.4371 36.4641C21.4371 38.417 19.854 40 17.9011 40C15.9483 40 14.3652 38.417 14.3652 36.4641Z" fill="#7335FD"/>
<path d="M20.3326 3.53592C20.3326 4.87849 19.2442 5.96686 17.9016 5.96686C16.5591 5.96686 15.4707 4.87849 15.4707 3.53592C15.4707 2.19335 16.5591 1.10498 17.9016 1.10498C19.2442 1.10498 20.3326 2.19335 20.3326 3.53592Z" fill="#FAFAFA"/>
<path fill-rule="evenodd" clip-rule="evenodd" d="M17.9011 2.20995C17.1688 2.20995 16.5752 2.8036 16.5752 3.53591C16.5752 4.26822 17.1688 4.86188 17.9011 4.86188C18.6335 4.86188 19.2271 4.26822 19.2271 3.53591C19.2271 2.8036 18.6335 2.20995 17.9011 2.20995ZM14.3652 3.53591C14.3652 1.58308 15.9483 0 17.9011 0C19.854 0 21.4371 1.58308 21.4371 3.53591C21.4371 5.48874 19.854 7.07182 17.9011 7.07182C15.9483 7.07182 14.3652 5.48874 14.3652 3.53591Z" fill="#272B36"/>
<path d="M34.4752 28.2874C34.4752 29.63 33.3868 30.7183 32.0442 30.7183C30.7016 30.7183 29.6133 29.63 29.6133 28.2874C29.6133 26.9448 30.7016 25.8564 32.0442 25.8564C33.3868 25.8564 34.4752 26.9448 34.4752 28.2874Z" fill="#FAFAFA"/>
<path fill-rule="evenodd" clip-rule="evenodd" d="M32.0437 26.9614C31.3114 26.9614 30.7178 27.5551 30.7178 28.2874C30.7178 29.0197 31.3114 29.6133 32.0437 29.6133C32.776 29.6133 33.3697 29.0197 33.3697 28.2874C33.3697 27.5551 32.776 26.9614 32.0437 26.9614ZM28.5078 28.2874C28.5078 26.3345 30.0909 24.7515 32.0437 24.7515C33.9966 24.7515 35.5796 26.3345 35.5796 28.2874C35.5796 30.2402 33.9966 31.8233 32.0437 31.8233C30.0909 31.8233 28.5078 30.2402 28.5078 28.2874Z" fill="#272B36"/>
<path d="M35.5796 11.7127C35.5796 13.6655 33.9966 15.2486 32.0437 15.2486C30.0909 15.2486 28.5078 13.6655 28.5078 11.7127C28.5078 9.75984 30.0909 8.17676 32.0437 8.17676C33.9966 8.17676 35.5796 9.75984 35.5796 11.7127Z" fill="#FAFAFA"/>
<path fill-rule="evenodd" clip-rule="evenodd" d="M32.0437 10.3867C31.3114 10.3867 30.7178 10.9804 30.7178 11.7127C30.7178 12.445 31.3114 13.0386 32.0437 13.0386C32.776 13.0386 33.3697 12.445 33.3697 11.7127C33.3697 10.9804 32.776 10.3867 32.0437 10.3867ZM28.5078 11.7127C28.5078 9.75984 30.0909 8.17676 32.0437 8.17676C33.9966 8.17676 35.5796 9.75984 35.5796 11.7127C35.5796 13.6655 33.9966 15.2486 32.0437 15.2486C30.0909 15.2486 28.5078 13.6655 28.5078 11.7127Z" fill="#7335FD"/>
<path d="M5.96735 28.2874C5.96735 29.63 4.87898 30.7183 3.53641 30.7183C2.19384 30.7183 1.10547 29.63 1.10547 28.2874C1.10547 26.9448 2.19384 25.8564 3.53641 25.8564C4.87898 25.8564 5.96735 26.9448 5.96735 28.2874Z" fill="#FAFAFA"/>
<path fill-rule="evenodd" clip-rule="evenodd" d="M3.53591 26.9614C2.8036 26.9614 2.20995 27.5551 2.20995 28.2874C2.20995 29.0197 2.8036 29.6133 3.53591 29.6133C4.26822 29.6133 4.86188 29.0197 4.86188 28.2874C4.86188 27.5551 4.26822 26.9614 3.53591 26.9614ZM0 28.2874C0 26.3345 1.58308 24.7515 3.53591 24.7515C5.48874 24.7515 7.07182 26.3345 7.07182 28.2874C7.07182 30.2402 5.48874 31.8233 3.53591 31.8233C1.58308 31.8233 0 30.2402 0 28.2874Z" fill="#272B36"/>
<path d="M5.96735 11.7127C5.96735 13.0552 4.87898 14.1436 3.53641 14.1436C2.19384 14.1436 1.10547 13.0552 1.10547 11.7127C1.10547 10.3701 2.19384 9.28174 3.53641 9.28174C4.87898 9.28174 5.96735 10.3701 5.96735 11.7127Z" fill="#FAFAFA"/>
<path fill-rule="evenodd" clip-rule="evenodd" d="M3.53591 10.3867C2.8036 10.3867 2.20995 10.9804 2.20995 11.7127C2.20995 12.445 2.8036 13.0386 3.53591 13.0386C4.26822 13.0386 4.86188 12.445 4.86188 11.7127C4.86188 10.9804 4.26822 10.3867 3.53591 10.3867ZM0 11.7127C0 9.75984 1.58308 8.17676 3.53591 8.17676C5.48874 8.17676 7.07182 9.75984 7.07182 11.7127C7.07182 13.6655 5.48874 15.2486 3.53591 15.2486C1.58308 15.2486 0 13.6655 0 11.7127Z" fill="#7335FD"/>
<path fill-rule="evenodd" clip-rule="evenodd" d="M13.5514 5.70635C13.2664 5.13503 13.0967 4.51316 13.052 3.87625L14.3747 3.78345C14.4072 4.24665 14.5306 4.69892 14.7379 5.11443C14.9452 5.52993 15.2323 5.90054 15.5828 6.2051L14.7131 7.20602C14.2312 6.78726 13.8364 6.27767 13.5514 5.70635ZM27.663 9.60784C28.0185 8.86764 28.5557 8.22954 29.2245 7.75306L29.9939 8.83298C29.5075 9.17951 29.1168 9.64358 28.8582 10.1819C28.5997 10.7202 28.4817 11.3153 28.5153 11.9115L27.1914 11.9861C27.1452 11.1662 27.3075 10.348 27.663 9.60784ZM3.31464 16.5695C2.47617 16.5311 1.66193 16.2762 0.951172 15.8298L1.65648 14.707C2.17339 15.0317 2.76556 15.217 3.37536 15.245C3.98516 15.2729 4.5918 15.1425 5.13626 14.8665L5.73588 16.0491C4.98725 16.4287 4.15311 16.608 3.31464 16.5695ZM29.8121 23.9689C30.5532 23.5856 31.3805 23.3994 32.2143 23.4284C33.0482 23.4574 33.8606 23.7004 34.5733 24.1342C35.286 24.568 35.8751 25.1779 36.2839 25.9053C36.6927 26.6327 36.9075 27.453 36.9075 28.2874H35.5815C35.5815 27.6805 35.4253 27.0839 35.128 26.555C34.8307 26.026 34.4023 25.5824 33.8839 25.2669C33.3656 24.9514 32.7748 24.7746 32.1683 24.7536C31.5619 24.7325 30.9602 24.8679 30.4212 25.1466L29.8121 23.9689ZM8.3789 28.7308C8.30235 29.5666 8.01071 30.3684 7.53237 31.0581C7.05403 31.7478 6.40527 32.302 5.64925 32.6666L5.07326 31.4722C5.62309 31.2071 6.09492 30.8041 6.4428 30.3025C6.79069 29.8009 7.00279 29.2177 7.05846 28.6098L8.3789 28.7308ZM20.4045 32.2958C21.1241 32.7278 21.7196 33.3388 22.1331 34.0693C22.5465 34.7997 22.7638 35.6248 22.7638 36.4641H21.4378C21.4378 35.8537 21.2798 35.2537 20.9791 34.7224C20.6784 34.1912 20.2453 33.7468 19.722 33.4326L20.4045 32.2958Z" fill="#FAFAFA"/>
</svg>
